<?xml version="1.0" standalone="no"?>
<!DOCTYPE svg PUBLIC "-//W3C//DTD SVG 1.1//EN" "http://www.w3.org/Graphics/SVG/1.1/DTD/svg11.dtd" >
<svg xmlns="http://www.w3.org/2000/svg">
<metadata>
This is a custom SVG webfont generated by Font Squirrel.
Copyright   : c 2003 Nate Piekos wwwblambotcom
</metadata>
<defs>
<font id="TurntablzBBRegular" horiz-adv-x="1364" >
<font-face units-per-em="2048" ascent="1638" descent="-410" />
<missing-glyph horiz-adv-x="862" />
<glyph unicode=" "  horiz-adv-x="862" />
<glyph unicode="&#x09;" horiz-adv-x="862" />
<glyph unicode="&#xa0;" horiz-adv-x="862" />
<glyph unicode="!" horiz-adv-x="782" d="M188 134q0 64 74 116q70 46 136 46q44 0 75 -25t31 -69q0 -66 -73 -116t-143 -50q-100 0 -100 98zM288 498q0 192 68 460q26 106 26 214q0 44 -10 126t-10 120q0 68 94 68q62 0 140 -28q92 -34 102 -82q8 -32 8 -74q0 -136 -106 -394t-106 -398q0 -40 -42 -64 q-34 -20 -78 -20q-86 0 -86 72z" />
<glyph unicode="&#x22;" horiz-adv-x="948" d="M166 1228q0 252 10 362q8 100 116 100q98 0 100 -100q0 -84 -2 -252v-74q2 -52 11 -155t9 -155t-49 -83t-101 -31q-70 0 -78 58q-16 90 -16 330zM584 1170q0 70 4 210t4 210q0 44 34 72t80 28q100 0 102 -100q0 -84 -2 -252v-74q2 -52 11 -155t9 -155t-49 -83t-101 -31 q-70 0 -78 58q-14 82 -14 272z" />
<glyph unicode="#" horiz-adv-x="1564" d="M20 886q0 66 90 74q44 4 392 18q0 134 12 178q26 108 114 108q98 0 98 -128q0 -26 -3 -78t-3 -76q152 2 310 6q0 58 10 324q6 152 112 156l12 2q94 4 94 -140q0 -58 -5 -172t-5 -168h44q30 2 44 2q194 0 194 -126q0 -96 -188 -96h-56q-34 2 -42 2v-64q-2 -38 -2 -62 l2 -56q30 0 90 2h90q164 0 164 -126q0 -92 -162 -92h-90q-60 -2 -90 -2q0 -20 3 -62t3 -64q0 -76 -46 -131t-122 -55q-62 0 -66 90q-2 40 -2 218q-102 -2 -304 -10q0 -22 4 -70t4 -72q0 -60 -49 -108t-109 -48q-70 0 -76 78q-2 26 -2 210q-210 -16 -216 -16q-120 0 -172 100 q-20 38 -20 64q0 56 92 64q10 0 320 16q0 44 6 176q-244 -20 -286 -20q-66 0 -124 44q-64 48 -64 110zM710 582q72 0 310 6q0 84 4 182q-104 -4 -310 -10q-4 -92 -4 -178z" />
<glyph unicode="$" horiz-adv-x="1594" d="M10 876q0 138 302 266q218 94 428 130q-4 26 -28 154q-22 110 -22 140q0 56 72 56q44 0 85 -24t53 -64q24 -74 42 -242q106 2 182 -18q34 56 66 112q46 64 106 64q52 0 94 -38t42 -90q0 -34 -38 -72q-28 -30 -58 -60q-20 -26 -36 -106q-16 -92 -30 -120q-24 -58 -80 -58 q-58 0 -108 30q-58 34 -58 88q0 22 10 48q-28 12 -76 12q4 -148 4 -296q328 -18 478 -112t190 -170q18 -32 18 -64q0 -134 -278 -268q-190 -92 -402 -146q2 -26 14 -108q10 -70 10 -110q0 -42 -38 -68t-82 -26q-74 0 -86 63t-16 209q-126 -18 -234 -18q-372 0 -372 204 q0 106 144 310q48 64 116 64q42 0 84 -12q56 -16 56 -48q0 -26 -90 -103t-90 -127q0 -80 224 -80q84 0 156 8q0 -4 0 410q-754 58 -754 280zM350 896q0 -76 414 -100q0 146 -8 268q-110 -20 -228 -58q-178 -58 -178 -110zM956 350q0 -62 2 -128q128 30 238 76 q178 70 178 134q0 98 -414 146q-4 -138 -4 -190v-38z" />
<glyph unicode="%" horiz-adv-x="1706" d="M2 696q0 190 414 542q-36 24 -36 78q0 58 80 58q112 0 306 -102t250 -194q124 142 206 264q22 38 72 110q22 24 50 24q48 0 94 -46t46 -92q0 -64 -234 -340q470 -164 470 -378q0 -186 -306 -320q-254 -110 -470 -110q-264 0 -264 152q0 32 12 68q-86 -110 -262 -316 q-28 -28 -70 -28q-48 0 -96 30q-54 32 -54 78q0 40 154 206q98 104 196 206q-164 -48 -306 -48q-252 0 -252 158zM244 794q0 -46 102 -46t268 58q198 72 198 152q0 60 -108 110q-72 32 -158 52q-88 -82 -174 -162q-128 -122 -128 -164zM926 440q0 -44 100 -44q102 0 268 60 q198 70 198 150q0 104 -266 162q-88 -82 -174 -162q-126 -122 -126 -166z" />
<glyph unicode="&#x26;" horiz-adv-x="1406" d="M-74 788q0 46 30 68q160 120 650 314q-16 232 -16 312q0 142 120 142q90 0 98 -150q4 -74 14 -224q250 90 312 90q44 0 75 -27t31 -71q0 -72 -76 -98q-110 -34 -330 -106q2 -52 14 -192q128 4 384 16h16q46 4 79 -41t33 -93q0 -52 -70 -76q-140 -42 -418 -138 q6 -58 16 -174q236 14 378 14q16 0 46 3t46 3q48 0 74 -48q24 -40 24 -92q0 -46 -47 -54t-127 -10q-112 0 -128 -2q-114 -6 -246 -20q22 -190 22 -182q0 -60 -47 -118t-107 -58t-72 82q-6 38 -22 254q-112 -12 -322 -40q-136 -18 -146 -18q-76 0 -134 80q-54 74 -54 152 q0 52 30 74q112 84 468 240q-6 0 -204 -32q-124 -18 -206 -18q-78 0 -136 82q-52 74 -52 156zM252 786q180 26 376 44q-4 40 -8 124q-198 -84 -368 -168zM350 288q112 14 314 34q-4 32 -8 104q-172 -74 -306 -138z" />
<glyph unicode="'" horiz-adv-x="726" d="M258 1228q0 252 8 362q10 100 118 100q98 0 100 -100q0 -84 -2 -252v-74q2 -52 11 -155t9 -155t-49 -83t-101 -31q-70 0 -80 58q-14 90 -14 330z" />
<glyph unicode="(" horiz-adv-x="712" d="M-8 588q0 344 372 798q84 100 96 114q72 76 116 76q36 0 71 -38t35 -74q0 -34 -40 -79t-124 -141q-328 -386 -328 -684q0 -288 376 -474q48 -18 142 -60q64 -32 64 -84q0 -54 -41 -108t-93 -54q-54 0 -204 102q-442 302 -442 706z" />
<glyph unicode=")" horiz-adv-x="814" d="M-20 1410q0 54 40 108t94 54t204 -104q444 -304 444 -706q0 -344 -374 -794q-84 -102 -98 -114q-72 -76 -114 -76q-36 0 -71 37t-35 73q0 34 41 80t125 140q326 382 326 684q0 290 -382 476q-48 18 -138 58q-62 32 -62 84z" />
<glyph unicode="*" horiz-adv-x="1256" d="M2 1076q0 86 76 86q56 0 396 -104q4 192 14 340q2 56 34 97t84 41q100 0 100 -128q0 -46 -4 -118q-6 -96 -6 -120q56 54 114 106q76 64 130 64q48 0 94 -26q54 -32 54 -76q0 -30 -30 -60q-44 -42 -270 -224q80 -28 356 -110q110 -34 110 -126q0 -96 -106 -96 q-52 0 -458 136q0 -42 4 -133t4 -137q0 -60 -48 -108t-110 -48q-68 0 -74 78q-6 64 -2 292l-178 -138q-48 -36 -98 -36q-44 0 -76 27t-32 69q0 54 98 136q74 54 148 110q-106 24 -210 50q-114 46 -114 156z" />
<glyph unicode="+" horiz-adv-x="1186" d="M-4 684q0 66 74 76q60 8 440 22q6 228 14 344q4 56 35 97t85 41q98 0 98 -128q0 -64 -6 -174q-6 -130 -8 -176q52 0 162 3t166 3q140 0 140 -126q0 -90 -130 -92q-280 -6 -340 -6q0 -56 4 -174t4 -178t-48 -108t-110 -48q-80 0 -80 154q0 20 2 50v40q0 100 6 256 q-116 -12 -344 -28h-14q-56 -4 -103 46t-47 106z" />
<glyph unicode="," horiz-adv-x="562" d="M42 -186q0 52 106 324q92 234 142 338q30 60 98 60q44 0 79 -27t35 -71q0 -24 -58 -164q-36 -90 -74 -178q-30 -100 -94 -296q-22 -64 -114 -64q-44 0 -78 18q-42 22 -42 60z" />
<glyph unicode="-" d="M94 696q0 52 74 64q100 16 486 22q442 10 468 10q84 0 122 -20q54 -28 54 -106q0 -92 -130 -92q-178 0 -454 -16q-390 -24 -454 -26h-14q-62 -4 -107 48t-45 116z" />
<glyph unicode="." horiz-adv-x="644" d="M194 176q0 64 74 116q68 48 134 48q44 0 76 -26t32 -70q0 -64 -71 -114t-139 -50q-44 0 -75 26t-31 70z" />
<glyph unicode="/" horiz-adv-x="1146" d="M-38 174q0 50 256 324q168 180 318 328q296 286 462 552q14 26 46 74q24 28 50 28q38 0 89 -49t51 -87q0 -18 -10 -40q-106 -230 -504 -604q-222 -210 -374 -392q-54 -76 -168 -214q-28 -28 -70 -28q-48 0 -94 30q-52 34 -52 78z" />
<glyph unicode="0" horiz-adv-x="1490" d="M-84 302q0 300 644 850q-60 42 -60 114q0 88 122 88q66 0 218 -54q278 -102 426 -198q250 -164 250 -364q0 -222 -322 -410q-442 -256 -892 -256q-386 0 -386 230zM154 384q0 -104 208 -104q200 0 468 94q284 100 412 230q68 70 68 126q0 132 -214 238q-144 70 -332 112 q-44 -46 -134 -136q-218 -200 -280 -264q-196 -204 -196 -296z" />
<glyph unicode="1" horiz-adv-x="758" d="M56 1144q0 76 148 132q106 34 214 66q54 16 84 16q146 0 146 -320q0 -132 -44 -387t-44 -387q0 -30 3 -90t3 -88q0 -68 -126 -68q-68 0 -82 48q-4 16 -4 104q0 140 44 416t44 416q0 58 -4 114q-36 -8 -124 -64q-78 -52 -118 -52q-44 0 -92 49t-48 95z" />
<glyph unicode="2" horiz-adv-x="1484" d="M-44 136q0 56 26 76q42 148 260 260q214 88 426 176q258 106 350 224q46 60 46 104q0 90 -148 90q-110 0 -289 -57t-283 -119q-80 -50 -110 -50q-64 0 -104 74q-34 62 -34 130q0 48 14 118q10 60 22 120q6 52 12 68q12 38 43 60t75 22q46 0 87 -31t41 -75q0 -22 -27 -82 t-27 -104q0 -10 2 -22q332 176 574 176q158 0 264 -54q140 -68 140 -212q0 -266 -394 -502q-88 -54 -284 -127t-286 -127q202 16 528 34q222 12 522 120q8 2 16 2q50 0 50 -98q0 -118 -58 -150q-220 -118 -714 -118q-254 0 -472 -46q-8 -2 -92 -24q-68 -18 -84 -18 q-44 0 -70 62q-22 50 -22 100z" />
<glyph unicode="3" horiz-adv-x="1540" d="M-94 196q0 52 31 96t81 44q22 0 50 -12q210 -84 278 -106q156 -50 290 -50q174 0 414 76q294 94 294 222q0 122 -174 178q-118 38 -276 38q-208 0 -472 -92q-174 -60 -190 -60q-44 0 -69 30t-25 74q0 76 68 108q68 24 204 74q254 104 558 280q-398 -66 -776 -68 q-12 -4 -22 -4q-36 0 -56 48q-16 36 -16 78q0 74 52 88q12 4 114 4q202 0 726 78q150 22 154 22q64 0 104 -90q34 -70 34 -146q0 -54 -32 -84t-180 -116q200 -16 324 -104q146 -104 146 -292q0 -258 -306 -416q-252 -130 -538 -130q-256 0 -604 110q-46 14 -90 26 q-62 20 -79 40t-17 56z" />
<glyph unicode="4" horiz-adv-x="1448" d="M-64 422q0 88 104 244q96 132 192 262q102 144 102 202q0 24 -14 58t-14 48q0 38 56 62q42 18 88 18q164 0 164 -100q0 -138 -138 -310q-130 -160 -202 -308q154 26 392 38q348 20 396 24q32 228 32 352q0 120 -26 254v8q0 40 78 40q122 0 158 -76q24 -48 24 -188 q0 -118 -38 -362q14 2 72 16q46 12 72 12q40 0 69 -45t29 -89q0 -54 -44 -68q-54 -18 -232 -34q-20 -126 -20 -394q0 -70 -130 -70q-72 0 -94 28q-14 22 -14 96q0 114 34 322l-464 -32q-314 -22 -476 -96q-28 -14 -48 -14q-108 0 -108 102z" />
<glyph unicode="5" horiz-adv-x="1598" d="M-106 196q0 52 31 96t81 44q20 0 48 -12q194 -80 278 -106q156 -50 292 -50q214 0 452 90q298 110 298 284q0 136 -216 136q-236 0 -610 -200q-50 -66 -164 -66q-94 0 -94 64q0 22 15 59t15 55q0 52 -78 160q-142 190 -148 200q-80 126 -80 220q0 100 98 100q28 0 78 -10 q144 -30 294 -30q122 0 362 29t362 29q96 0 106 -2q78 -6 90 -38q8 -14 8 -38q0 -48 -24 -92q-28 -54 -72 -54t-131 8t-131 8q-104 0 -244 -20q-276 -38 -500 -24q28 -64 106 -175t106 -171q382 224 662 224q170 0 282 -84q126 -94 126 -258q0 -174 -156 -334 q-242 -248 -768 -248q-278 0 -640 106q-46 10 -112 40q-22 20 -22 60z" />
<glyph unicode="6" horiz-adv-x="1720" d="M0 436q0 202 230 432q204 202 502 348q292 144 490 144q128 0 210 -73t82 -201q0 -74 -46 -125t-120 -51q-46 0 -60 62l-24 112q-26 62 -102 62q-128 0 -361 -134t-403 -302q-192 -186 -192 -312q0 -82 138 -118q88 -24 204 -24q52 0 108 4q-72 90 -72 176q0 180 276 294 q218 90 432 90q154 0 260 -62q132 -74 132 -218q0 -118 -116 -244q-126 -138 -458 -224q-276 -70 -520 -70q-402 0 -526 216q-64 106 -64 218zM884 418q0 -54 86 -112q452 94 452 216q0 58 -154 58q-106 0 -224 -36q-160 -46 -160 -126z" />
<glyph unicode="7" horiz-adv-x="1160" d="M-72 1098q0 68 46 96q166 100 586 100q316 0 574 66q14 26 46 26q50 0 103 -49t53 -97q0 -14 -6 -26q-96 -244 -438 -606q-196 -204 -332 -392q-44 -74 -144 -214q-26 -30 -62 -30q-42 0 -104 35t-62 75q0 80 422 550q230 256 392 502q-204 -14 -612 -48 q-148 -16 -270 -54q-2 -2 -72 -30q-52 -20 -68 -20q-52 0 -52 116z" />
<glyph unicode="8" horiz-adv-x="1434" d="M-70 190q0 104 132 234q94 94 224 172q-80 40 -80 130q0 126 154 298q80 92 258 242q-38 30 -38 72q0 60 84 60q38 0 84 -14q490 -156 490 -360q0 -142 -142 -250q142 -30 260 -100q154 -92 154 -210q0 -226 -504 -360q-372 -98 -698 -98q-378 0 -378 184zM220 284 q0 -66 186 -66q182 0 470 56q376 72 376 176q0 132 -246 132q-116 0 -262 -30t-298 -92q-226 -90 -226 -176zM444 820q0 -46 102 -46t268 60q198 70 198 150q0 106 -266 162l-66 -66q-68 -62 -138 -122q-98 -96 -98 -138z" />
<glyph unicode="9" horiz-adv-x="1450" d="M-64 648q0 146 220 360q114 110 348 286q-52 34 -52 88q0 72 108 72q58 0 120 -18q610 -176 676 -408q44 -146 44 -316q0 -88 -27 -254t-27 -260q0 -36 4 -108t4 -106q0 -50 -50 -82q-42 -30 -94 -30q-68 0 -86 64q-6 24 -6 120q0 106 26 316t26 316v16 q-172 -118 -432 -192q-250 -72 -466 -72q-336 0 -336 208zM182 720q0 -76 170 -76q104 0 244 30q154 32 310 98q230 96 230 190q0 158 -448 244q-38 -36 -118 -106q-114 -88 -226 -176q-162 -138 -162 -204z" />
<glyph unicode=":" horiz-adv-x="536" d="M162 176q0 64 72 114t138 50q44 0 75 -26t31 -70q0 -64 -71 -114t-137 -50q-46 0 -77 26t-31 70zM162 698q0 64 76 116q68 46 134 46q44 0 75 -25t31 -69q0 -66 -73 -116t-143 -50q-100 0 -100 98z" />
<glyph unicode=";" horiz-adv-x="670" d="M96 -186q0 56 108 324q86 218 144 338q28 60 96 60q44 0 79 -28t35 -70q0 -18 -8 -42q-42 -100 -122 -300q-30 -100 -96 -296q-22 -64 -116 -64q-42 0 -78 18q-42 22 -42 60zM202 902q0 64 78 116q70 46 138 46q100 0 100 -96q0 -66 -78 -118q-70 -46 -138 -46 q-100 0 -100 98z" />
<glyph unicode="=" horiz-adv-x="1310" d="M16 894q0 54 74 66q96 16 486 22q490 8 502 8q142 0 142 -124q0 -94 -130 -94q-180 0 -456 -16q-414 -22 -454 -24h-16q-60 -4 -104 48t-44 114zM62 496q0 52 74 64q96 16 486 22q442 10 502 10q142 0 142 -126q0 -92 -130 -92q-180 0 -454 -16q-416 -24 -454 -26h-16 q-62 -4 -106 48t-44 116z" />
<glyph unicode="?" horiz-adv-x="1720" d="M-2 1072q0 30 40 62q34 20 68 42q536 346 1002 346q226 0 386 -94q262 -152 262 -390q0 -204 -202 -310q-160 -86 -384 -86q-166 0 -390 54q10 -94 10 -180q0 -84 -26 -116q-30 -38 -112 -38q-64 0 -78 40q-6 18 -6 92q0 136 -22 218q-6 20 -46 49t-40 75q0 56 60 98 q54 40 112 40q40 0 72 -26q44 -36 58 -42q102 -42 364 -42q134 0 244 36q160 50 160 156q0 42 -36 90q-104 140 -484 140q-94 0 -190 -6q-290 -20 -624 -314q-40 -36 -72 -36q-40 0 -83 51t-43 91zM602 62q0 64 76 116q68 46 134 46q44 0 76 -26t32 -68q0 -66 -78 -118 q-70 -46 -140 -46q-100 0 -100 96z" />
<glyph unicode="@" horiz-adv-x="1920" d="M-30 524q0 336 208 598q148 186 360 308q230 130 450 130q170 0 314 -84q320 -188 502 -518q162 -290 162 -506q0 -152 -84 -246q-88 -100 -240 -100t-273 98t-161 248q-124 -86 -297 -140t-323 -54q-246 0 -246 170q0 184 410 534q-36 26 -36 76q0 56 80 56 q74 0 224 -64q132 -58 212 -112q8 66 20 92q22 48 74 48q40 0 66 -29t26 -71q0 -58 -17 -178t-17 -180q0 -284 228 -284q80 0 129 49t49 131q0 174 -180 428q-170 236 -336 336q-144 86 -302 86q-102 0 -210 -38q-254 -86 -416 -282q-172 -208 -172 -464q0 -238 224 -404 q40 -26 78 -52q48 -34 48 -74q0 -42 -34 -85t-78 -43t-164 102q-278 238 -278 518zM578 510q0 -42 98 -42q102 0 270 60q200 70 200 150q0 106 -266 162q-302 -270 -302 -330z" />
<glyph unicode="A" horiz-adv-x="1452" d="M-10 478q0 68 23 87q21 17 77 17h12q-56 220 -56 344q0 76 22 118q48 94 202 144q166 56 448 98q272 40 456 40q284 0 284 -164q0 -54 -48 -206l-72 -212q22 -2 65 -10t77 -72q28 -58 28 -108q0 -56 -48 -56q-30 0 -91 7t-91 7h-12q-44 -174 -44 -308q0 -106 32 -228 q8 -30 8 -46q0 -62 -64 -62q-36 0 -82 20t-58 48q-46 110 -46 284q0 130 30 276q-124 -16 -318 -54q-260 -52 -316 -62q2 -6 62 -158q50 -126 50 -144q0 -40 -44 -64q-36 -20 -80 -20q-86 0 -116 66q-52 108 -108 290q-74 -8 -106 -8q-38 0 -60 52q-16 38 -16 84zM290 864 q0 -92 48 -262q114 14 386 72q244 54 386 68q30 84 60 166q46 126 46 160l-2 8q-24 24 -140 24q-178 0 -400 -32q-300 -44 -364 -120q-20 -26 -20 -84z" />
<glyph unicode="B" horiz-adv-x="1598" d="M-14 188q0 86 64 132q6 94 28 281t28 281q-12 -6 -22 -6q-32 0 -50 38q-14 30 -14 66q0 48 20 68q12 12 62 32q-2 12 -12 58q-8 38 -8 58q0 38 60 38q116 0 128 -90q550 192 808 192q60 0 96 -62q30 -54 30 -120q0 -48 -32 -82q-42 -46 -222 -184q150 34 276 34 q186 0 312 -76q150 -90 150 -264q0 -214 -204 -380q-168 -138 -402 -194q-138 -34 -318 -34q-182 0 -380 38q-218 42 -362 114q-36 20 -36 62zM224 292q286 -124 512 -124q202 0 440 90q294 110 294 272q0 160 -296 160q-230 0 -490 -90q-188 -66 -456 -204zM258 674 q300 168 650 436q-258 -32 -624 -164q-4 -104 -26 -272z" />
<glyph unicode="C" horiz-adv-x="1634" d="M-76 428q0 204 226 422q198 190 492 326q286 130 480 130q74 0 134 -20q28 130 34 146q32 80 108 80q54 0 98 -37t44 -89q0 -22 -48 -131t-48 -197q0 -24 6 -73t6 -73q0 -130 -140 -130q-66 0 -86 72q-18 66 -36 134q-36 72 -140 72q-244 0 -592 -252 q-312 -224 -312 -386q0 -106 128 -156q90 -34 216 -34q218 0 508 80q156 44 352 134l340 164q38 20 62 20q72 0 72 -136q0 -96 -60 -130q-48 -24 -208 -90q-658 -268 -1090 -268q-362 0 -484 206q-62 106 -62 216z" />
<glyph unicode="D" horiz-adv-x="1456" d="M-18 1314q0 48 31 90t77 42q26 0 90 -44q44 -34 88 -66q366 -246 1220 -544q126 -44 126 -224q0 -108 -82 -128q-150 -152 -476 -224q-268 -44 -536 -86q-102 -20 -334 -124q-18 -8 -34 -8q-50 0 -85 54t-35 108q0 64 46 84q42 162 42 386q0 314 -70 578q-68 36 -68 106z M288 1070q26 -178 26 -404q0 -128 -10 -356q222 50 600 102q310 42 450 208q-582 184 -1066 450z" />
<glyph unicode="E" horiz-adv-x="1562" d="M-50 458q0 202 208 424q186 198 458 336t468 138q144 0 224 -108q20 -28 66 -145t52 -151v-10q4 -182 -340 -318q-168 -68 -506 -144q-232 -54 -398 -96q54 -128 314 -128q254 0 604 134q186 70 374 178q42 28 130 76q30 14 50 14q78 0 78 -122q0 -106 -56 -144 q-18 -10 -178 -82q-648 -284 -1028 -284q-348 0 -462 214q-58 106 -58 218zM240 634q270 60 482 112q436 106 436 234q0 56 -58 92q-50 32 -108 32q-154 0 -412 -170q-242 -158 -340 -300z" />
<glyph unicode="F" horiz-adv-x="1518" d="M-16 566q0 68 44 86q36 14 164 32q4 62 4 116q0 280 -80 474q-36 16 -36 86q0 86 37 119t123 33q172 0 523 -120t515 -120q60 0 148 31t94 31q42 0 42 -100q0 -112 -56 -144q-80 -50 -216 -50q-178 0 -466 104q-326 118 -462 134q56 -168 56 -458q0 -53 -2 -110l526 42 q208 18 488 124q12 4 20 4q46 0 46 -114q0 -106 -58 -138q-176 -98 -504 -112q-290 -14 -534 -46q-26 -244 -30 -260q-20 -150 -56 -252q-12 -36 -53 -59t-81 -23q-64 0 -64 56q0 100 22 248q32 238 32 246q-86 -22 -90 -22q-44 0 -72 62q-24 50 -24 100z" />
<glyph unicode="G" horiz-adv-x="1666" d="M-74 438q0 296 354 580q304 244 632 320q58 14 114 14q82 0 146 -34q40 72 62 96q42 48 96 48q44 0 100 -26q68 -30 68 -68q0 -2 -76 -121t-76 -195q0 -14 5 -42t5 -42q0 -86 -152 -86q-119 0 -119 121q0 13 1 27q-40 70 -124 70q-124 0 -324 -112t-342 -262 q-158 -168 -158 -300q0 -112 120 -166q90 -40 218 -40q448 0 1014 356q-26 30 -118 30q-230 0 -740 -164q-24 -6 -38 -6q-40 0 -62 48q-18 40 -18 86q0 56 50 78t128 40l132 28q454 112 702 112q106 0 152 -20q76 -30 76 -116q0 -80 -36 -174q-42 -108 -100 -140 q-264 -146 -580 -252q-364 -122 -612 -122q-220 0 -354 104q-146 114 -146 330z" />
<glyph unicode="H" horiz-adv-x="1420" d="M16 640q0 66 38 86q14 10 96 24v36q0 84 -28 241t-28 211q0 42 78 42q96 0 118 -50q46 -98 46 -352q0 -47 -2 -100q256 14 766 70q24 220 24 372q0 40 -5 117t-5 115q0 54 60 54q102 0 134 -80q16 -46 16 -168q0 -126 -30 -366q14 4 100 36q78 28 86 28q52 0 52 -100 q0 -116 -58 -148q-78 -40 -216 -68q-46 -300 -46 -584q0 -74 -108 -74q-92 0 -92 62q0 210 56 564q-110 -14 -374 -30q-238 -14 -372 -34v-60v-21q0 -77 12 -187q11 -102 12 -102v2q0 -76 -116 -76q-62 0 -74 40q-18 58 -18 198q0 44 4 166q-34 -12 -42 -12q-40 0 -64 56 q-20 46 -20 92z" />
<glyph unicode="I" horiz-adv-x="1732" d="M56 1166q0 70 48 88q196 74 706 74q318 0 556 78q4 0 82 32q60 24 74 24q52 0 52 -100q0 -114 -60 -148q-140 -78 -554 -112l2 -52v-14q0 -138 -38 -376q-46 -270 -48 -390q216 14 396 36q110 16 366 96q10 2 18 2q54 0 54 -96q0 -118 -64 -152q-228 -116 -782 -116 q-274 0 -502 -44l-98 -28q-64 -16 -96 -16q-46 0 -76 58q-24 50 -24 100q0 70 48 88q80 30 274 44q142 8 286 18q6 104 46 382q36 242 36 386q0 30 -2 62q-170 -12 -300 -26q-36 -4 -166 -32q-120 -26 -138 -26q-44 0 -72 60q-24 50 -24 100z" />
<glyph unicode="J" horiz-adv-x="1606" d="M-106 354q0 52 35 96t85 44q24 0 102 -34q52 -24 106 -48q428 -178 776 -178q378 0 378 246q0 138 -134 312q-104 138 -248 248q-70 -6 -368 -28q-142 -10 -253 -41t-105 -31q-40 0 -64 54q-18 44 -18 90q0 74 44 94q170 74 648 82q290 4 506 90q32 14 66 30q48 22 60 22 q48 0 48 -100q0 -112 -76 -160q-42 -26 -182 -60q122 -120 208 -270q98 -176 98 -320q0 -142 -82 -280q-126 -208 -482 -208h-14l-30 2q-324 2 -898 214q-60 16 -170 66q-36 22 -36 68z" />
<glyph unicode="K" horiz-adv-x="1672" d="M56 514q0 130 64 176q14 124 14 214q0 40 -26 250q-2 2 -2 12q0 32 72 32q108 0 140 -72q20 -44 20 -170q0 -64 -10 -152q210 120 556 298q460 236 524 236q76 0 76 -94q0 -66 -78 -102q-254 -112 -506 -226q-390 -182 -436 -258l4 -6h10q10 -1 21 -1q55 0 133 17 q76 20 152 38q512 112 730 112q74 0 99 -24t25 -98q0 -46 -22 -68q-62 -172 -62 -340q0 -38 12 -111t12 -109q0 -46 -60 -80q-52 -32 -102 -32q-62 0 -80 94q-6 36 -6 142q0 160 34 326q6 36 6 46q0 26 -28 26q-64 0 -374 -50q-230 -40 -692 -118q-4 -60 -4 -120 q0 -24 2 -70t2 -68q0 -64 -116 -64q-62 0 -80 28q-12 20 -12 86q0 42 12 188q-24 40 -24 112z" />
<glyph unicode="L" horiz-adv-x="1396" d="M52 1238q0 40 86 40t110 -48q50 -100 50 -318q0 -70 -11 -208t-11 -208q0 -124 14 -240q284 74 638 118q270 36 472 128q38 18 74 38q54 30 68 30q58 0 58 -120q0 -96 -44 -128q-206 -148 -650 -188q-288 -26 -516 -100q-46 -20 -94 -38q-70 -26 -90 -26q-112 0 -112 478 q0 70 8 208t8 208q0 122 -20 224q-2 12 -22 76q-16 54 -16 74z" />
<glyph unicode="M" horiz-adv-x="1702" d="M112 258q0 116 37 343t37 343q0 54 -4 88q-2 20 -24 68q-20 42 -20 74q0 54 40 87t94 33q58 0 96 -102q152 -428 434 -428q232 0 482 324q38 48 51 118t123 70q146 0 146 -68q0 -14 -2 -40t-2 -40q0 -46 8 -140t8 -140q0 -62 -10 -184t-10 -184q0 -52 14 -153t14 -151 v-12q0 -28 -46 -48q-36 -16 -70 -16q-64 0 -76 40q-20 68 -20 216q0 70 9 208t9 208q0 96 -8 188q-178 -192 -320 -310q-148 -128 -336 -128q-242 0 -402 246q-14 -108 -30 -218q-16 -130 -16 -220q0 -26 3 -81t3 -81q0 -68 -114 -68q-74 0 -90 48q-8 20 -8 110z" />
<glyph unicode="N" horiz-adv-x="1512" d="M94 242q0 120 37 359t37 359q0 84 -8 136q-2 20 -22 67t-20 65q0 32 64 54q54 18 96 18t60 -42q100 -206 372 -512q264 -296 462 -432q72 -50 104 -50q44 0 74 86q22 66 22 122q0 96 -36 214q-54 178 -158 338q-106 152 -212 302q-20 30 -20 58q0 38 33 87t69 49 q32 0 74 -50q172 -206 302 -496q144 -320 144 -552q0 -162 -70 -260q-80 -110 -238 -110q-194 0 -500 314q-136 138 -404 478q-4 -28 -36 -246q-22 -152 -22 -248q0 -32 4 -92t4 -90q0 -68 -114 -68q-70 0 -88 40q-10 22 -10 102z" />
<glyph unicode="O" horiz-adv-x="1490" d="M-84 302q0 300 644 850q-60 42 -60 114q0 88 122 88q66 0 218 -54q278 -102 426 -198q250 -164 250 -364q0 -222 -322 -410q-442 -256 -892 -256q-386 0 -386 230zM154 384q0 -104 208 -104q200 0 468 94q284 100 412 230q68 70 68 126q0 132 -214 238q-144 70 -332 112 q-44 -46 -134 -136q-218 -200 -280 -264q-196 -204 -196 -296z" />
<glyph unicode="P" horiz-adv-x="1322" d="M78 954q0 66 82 94q-2 20 -12 72q-10 46 -10 72q0 42 60 42q118 0 132 -126q634 210 1016 228h16h7q65 0 107 -66q36 -58 36 -134q0 -56 -38 -90q-384 -344 -1188 -722q-4 -56 -4 -120q0 -28 2 -83t2 -83q0 -68 -102 -68q-62 0 -78 40q-6 18 -6 94q0 62 16 232 q-4 12 -4 24q0 6 12 54q24 98 38 446h-14q-34 0 -54 32q-16 26 -16 62zM308 554q404 196 918 550q-442 -54 -886 -186q-4 -134 -32 -364z" />
<glyph unicode="Q" horiz-adv-x="1486" d="M-128 308q0 294 648 844q-62 46 -62 116q0 86 124 86q64 0 218 -54q278 -102 426 -200q248 -164 248 -366q0 -192 -260 -368q-188 -126 -440 -206q-4 -36 -4 -66q0 -64 24 -108q30 -56 90 -56q82 0 237 85t187 85q36 0 69 -35t33 -71q0 -34 -44 -66q-90 -68 -230 -122 q-150 -58 -254 -58q-144 0 -224 112q-68 98 -70 250q-176 -40 -332 -40q-384 0 -384 238zM114 382q0 -102 210 -102q124 0 284 40q38 238 118 400q40 80 128 80q74 0 74 -58q0 -32 -44 -170q-58 -180 -60 -184q152 56 270 132q178 112 178 210q0 132 -216 238 q-144 70 -334 112q-42 -46 -132 -136q-214 -196 -280 -264q-196 -204 -196 -298z" />
<glyph unicode="R" horiz-adv-x="1592" d="M46 544q0 86 64 96q14 148 16 238q-8 -2 -16 -2q-30 0 -50 38q-14 30 -14 66q0 46 18 64q8 10 54 30q-12 100 -12 92q0 32 58 32q32 0 74 -16q50 -18 48 -48q596 202 866 202q60 0 100 -60q38 -52 38 -114q0 -58 -34 -90q-154 -146 -570 -362q478 80 648 80q86 0 122 -20 q50 -28 50 -108q0 -32 -14 -48q-26 -106 -26 -206q0 -134 54 -290q6 -18 6 -30q0 -40 -51 -68t-95 -28q-62 0 -84 80q-42 140 -42 480q0 32 -9 41t-39 9q-172 0 -474 -58q-354 -66 -474 -78q-10 -80 -10 -168q0 -22 2 -67t2 -67q0 -64 -98 -64q-60 0 -76 38q-8 20 -8 90 q0 66 16 206q-40 36 -40 110zM288 714q428 208 688 396q-276 -36 -670 -168q-2 -104 -18 -228z" />
<glyph unicode="S" horiz-adv-x="1468" d="M-66 874q0 118 254 242q180 86 365 131t335 45q94 0 166 -18q48 92 64 114q48 62 106 62q52 0 94 -38t42 -90q0 -34 -36 -72q-60 -58 -60 -60q-20 -26 -36 -106q-16 -90 -30 -120q-24 -58 -78 -58q-58 0 -108 30q-60 34 -60 88q0 22 10 48q-24 10 -76 10q-124 0 -334 -48 q-264 -60 -264 -138q0 -58 222 -82l460 -40q286 -30 392 -94q156 -92 196 -174q16 -30 16 -58q0 -150 -308 -288q-208 -96 -434 -146q-202 -42 -370 -42q-370 0 -370 204q0 110 144 308q48 64 116 64q42 0 84 -12q56 -16 56 -48q0 -24 -86 -100t-86 -124q0 -90 202 -90 q180 0 418 62q112 30 208 72q156 66 156 122q0 50 -117 92t-401 68q-368 36 -462 52q-244 42 -338 130q-52 48 -52 102z" />
<glyph unicode="T" horiz-adv-x="1272" d="M-100 1152q0 72 46 88q202 70 746 70q286 0 532 86q36 14 74 30q54 22 66 22q52 0 52 -100q0 -116 -60 -150q-154 -82 -580 -112v-60v-12q0 -139 -42 -386q-48 -264 -48 -394q0 -26 4 -75t4 -73q0 -70 -114 -70q-70 0 -90 42q-8 22 -8 106q0 140 46 422q44 270 44 421v13 l-2 54q-158 -12 -286 -26q-32 -4 -156 -32q-112 -24 -134 -24q-42 0 -72 60q-22 50 -22 100z" />
<glyph unicode="U" horiz-adv-x="1456" d="M34 258q0 52 14 128q6 30 142 674q10 64 42 186q24 66 88 66q44 0 76 -29t32 -71q0 -58 -28 -196l-44 -204q-38 -194 -78 -370q-16 -62 -16 -96q0 -78 90 -78q22 0 64 4q204 22 410 42q298 42 362 118q26 30 26 124q0 170 -88 564q-42 192 -42 226q0 76 120 76 q80 0 110 -116q12 -90 26 -182q90 -434 90 -642q0 -100 -28 -152q-48 -94 -198 -138q-196 -56 -464 -98q-280 -44 -470 -44q-236 0 -236 208z" />
<glyph unicode="V" horiz-adv-x="1326" d="M-56 1250q0 42 50 77t92 35q30 0 50 -20q92 -88 286 -448q158 -298 246 -500q122 220 292 482q130 202 192 382l28 96q22 56 66 56q46 0 96 -34q52 -40 52 -84q0 -82 -100 -274q-78 -144 -158 -260q-120 -174 -174 -256q-92 -148 -144 -272q-10 -24 -18 -79t-20 -79 q-18 -34 -80 -34q-70 0 -130 30q-38 20 -46 46q-4 12 -4 66q0 22 -6 38q-112 326 -392 760l-100 140q-78 112 -78 132z" />
<glyph unicode="W" horiz-adv-x="1768" d="M-108 1246q0 40 47 75t89 35q30 0 46 -24q88 -112 210 -428q94 -244 160 -466l188 372q110 222 160 384q10 42 32 122q26 74 158 74q58 0 102 -128q-2 6 -2 -44q0 -18 38 -116q26 -64 52 -126q86 -240 148 -512q82 176 222 452q76 150 114 290q12 64 44 184q10 32 40 32 q48 0 94 -46t46 -94q0 -192 -206 -544q-260 -448 -260 -562q0 -8 3 -21t3 -21q0 -10 -14 -48t-22 -46q-18 -18 -64 -18q-138 0 -138 104q0 156 -86 450q-68 240 -152 444q-84 -220 -222 -462q-98 -168 -152 -322q-12 -56 -50 -160q-20 -38 -64 -38q-36 0 -74 18 q-30 0 -38 24q-24 16 -24 44q0 16 8 32q-100 416 -276 782q-2 2 -88 162q-72 132 -72 146z" />
<glyph unicode="X" horiz-adv-x="1266" d="M-12 1256q0 44 43 85t89 41q82 0 540 -532q144 154 262 294q60 74 154 212q22 34 66 96q22 26 50 26q48 0 95 -47t47 -93q0 -104 -534 -658q164 -212 258 -338q40 -50 114 -154q10 -20 10 -38q0 -44 -39 -82t-83 -38q-28 0 -54 26q-36 52 -110 154q-120 164 -242 318 q-172 -178 -270 -300q-34 -46 -104 -134q-28 -28 -72 -28q-46 0 -94 30q-56 32 -56 78t202 260q126 132 254 262q-170 194 -338 358q-62 50 -172 158q-16 20 -16 44z" />
<glyph unicode="Y" horiz-adv-x="1568" d="M-42 266q0 78 44 127t120 49q120 0 298 -46q164 -42 286 -96q248 -114 390 -114q254 0 254 354q0 122 -28 294q-144 -84 -478 -152q-306 -62 -504 -62q-142 0 -202 34q-84 46 -84 174q0 228 60 418q28 88 144 88q82 0 82 -56q0 -38 -29 -158t-29 -180t40 -74q20 -8 98 -8 q154 0 414 46q316 56 368 126q28 38 28 128q0 38 -10 114t-10 114q0 34 39 60t75 26q74 0 100 -102q40 -164 74 -404q32 -250 32 -410q0 -240 -82 -396q-106 -202 -324 -202q-162 0 -432 118q-310 136 -672 136q-62 0 -62 54z" />
<glyph unicode="Z" horiz-adv-x="1584" d="M-6 1194q0 46 24 84t58 44h74q44 0 116 8q88 10 114 12q118 8 262 8q40 0 123 -2t123 -2q238 0 436 56q4 2 74 28q56 20 70 20q50 0 50 -92q0 -88 -40 -142q-202 -276 -452 -492q-280 -244 -500 -466q200 4 400 6q236 8 398 48q-6 36 -48 114q-36 72 -36 106q0 46 51 93 t97 47q82 0 124 -160l40 -228q8 -44 8 -66q0 -58 -43 -94q-37 -31 -83 -31q-8 0 -16 1q-206 -66 -452 -66q-42 0 -125 4t-125 4q-172 0 -316 -30q-10 -2 -70 -18q-46 -14 -70 -14q-38 0 -92 50t-54 88q0 88 524 536q282 240 494 482q-130 -14 -450 -20q-288 -4 -450 -28 q6 -24 46 -98q32 -62 32 -100q0 -46 -53 -93t-99 -47q-82 0 -122 162q-6 22 -36 230q-6 40 -6 58z" />
<glyph unicode="\" horiz-adv-x="1116" d="M-96 1344q0 40 50 88t90 48q24 0 50 -28q14 -26 46 -74q166 -264 460 -552q154 -150 320 -328q258 -276 258 -324q0 -46 -54 -78q-46 -30 -94 -30q-42 0 -72 28q-34 36 -86 104q-60 86 -80 110q-154 182 -376 392q-394 372 -502 604q-10 22 -10 40z" />
<glyph unicode="a" horiz-adv-x="1452" d="M-10 478q0 68 23 87q21 17 77 17h12q-56 220 -56 344q0 76 22 118q48 94 202 144q166 56 448 98q272 40 456 40q284 0 284 -164q0 -54 -48 -206l-72 -212q22 -2 65 -10t77 -72q28 -58 28 -108q0 -56 -48 -56q-30 0 -91 7t-91 7h-12q-44 -174 -44 -308q0 -106 32 -228 q8 -30 8 -46q0 -62 -64 -62q-36 0 -82 20t-58 48q-46 110 -46 284q0 130 30 276q-124 -16 -318 -54q-260 -52 -316 -62q2 -4 62 -158q50 -126 50 -144q0 -40 -44 -64q-36 -20 -80 -20q-86 0 -116 66q-52 108 -108 290q-74 -8 -106 -8q-38 0 -60 52q-16 38 -16 84zM290 864 q0 -92 48 -262q114 14 386 72q244 54 386 68q30 84 60 166q46 126 46 160l-2 8q-24 24 -140 24q-178 0 -400 -32q-300 -44 -364 -120q-20 -26 -20 -84z" />
<glyph unicode="b" horiz-adv-x="1598" d="M-14 188q0 86 64 132q6 94 28 281t28 281q-12 -6 -22 -6q-32 0 -50 38q-14 30 -14 66q0 48 20 68q12 12 62 32q-2 12 -12 58q-8 38 -8 58q0 38 60 38q116 0 128 -90q550 192 808 192q60 0 96 -62q30 -54 30 -120q0 -48 -32 -82q-42 -46 -222 -184q150 34 276 34 q186 0 312 -76q150 -90 150 -264q0 -214 -204 -380q-168 -138 -402 -194q-138 -34 -318 -34q-182 0 -380 38q-218 42 -362 114q-36 20 -36 62zM224 292q286 -124 512 -124q202 0 440 90q294 110 294 272q0 160 -296 160q-230 0 -490 -90q-188 -66 -456 -204zM258 674 q300 168 650 436q-258 -32 -624 -164q-4 -104 -26 -272z" />
<glyph unicode="c" horiz-adv-x="1634" d="M-76 428q0 204 226 422q198 190 492 326q286 130 480 130q74 0 134 -20q28 130 34 146q32 80 108 80q54 0 98 -37t44 -89q0 -22 -48 -131t-48 -197q0 -24 6 -73t6 -73q0 -130 -140 -130q-66 0 -86 72q-18 66 -36 134q-36 72 -140 72q-244 0 -592 -252 q-312 -224 -312 -386q0 -106 128 -156q90 -34 216 -34q218 0 508 80q156 44 352 134l340 164q38 20 62 20q72 0 72 -136q0 -96 -60 -130q-48 -24 -208 -90q-658 -268 -1090 -268q-362 0 -484 206q-62 106 -62 216z" />
<glyph unicode="d" horiz-adv-x="1456" d="M-18 1314q0 48 31 90t77 42q26 0 90 -44q44 -34 88 -66q366 -246 1220 -544q126 -44 126 -224q0 -108 -82 -128q-150 -152 -476 -224q-268 -44 -536 -86q-102 -20 -334 -124q-18 -8 -34 -8q-50 0 -85 54t-35 108q0 64 46 84q42 162 42 386q0 312 -70 578q-68 36 -68 106z M288 1070q26 -178 26 -404q0 -128 -10 -356q222 50 600 102q310 42 450 208q-582 184 -1066 450z" />
<glyph unicode="e" horiz-adv-x="1562" d="M-50 458q0 202 208 424q186 198 458 336t468 138q144 0 224 -108q20 -28 66 -145t52 -151v-10q4 -182 -340 -318q-168 -68 -506 -144q-232 -54 -398 -96q54 -128 314 -128q254 0 604 134q186 70 374 178q42 28 130 76q30 14 50 14q78 0 78 -122q0 -106 -56 -144 q-18 -10 -178 -82q-648 -284 -1028 -284q-348 0 -462 214q-58 106 -58 218zM240 634q270 60 482 112q436 106 436 234q0 56 -58 92q-50 32 -108 32q-154 0 -412 -170q-242 -158 -340 -300z" />
<glyph unicode="f" horiz-adv-x="1518" d="M-16 566q0 68 44 86q36 14 164 32q4 62 4 116q0 280 -80 474q-36 16 -36 86q0 86 37 119t123 33q172 0 523 -120t515 -120q60 0 148 31t94 31q42 0 42 -100q0 -112 -56 -144q-80 -50 -216 -50q-178 0 -466 104q-326 118 -462 134q56 -168 56 -458q0 -53 -2 -110l526 42 q208 18 488 124q12 4 20 4q46 0 46 -114q0 -106 -58 -138q-176 -98 -504 -112q-290 -14 -534 -46q-26 -244 -30 -260q-20 -150 -56 -252q-12 -36 -53 -59t-81 -23q-64 0 -64 56q0 100 22 248q32 238 32 246q-86 -22 -90 -22q-44 0 -72 62q-24 50 -24 100z" />
<glyph unicode="g" horiz-adv-x="1666" d="M-74 438q0 296 354 580q304 244 632 320q58 14 114 14q82 0 146 -34q40 72 62 96q42 48 96 48q44 0 100 -26q68 -30 68 -68q0 -2 -76 -121t-76 -195q0 -14 5 -42t5 -42q0 -86 -152 -86q-119 0 -119 121q0 13 1 27q-40 70 -124 70q-124 0 -324 -112t-342 -262 q-158 -168 -158 -300q0 -112 120 -166q90 -40 218 -40q448 0 1014 356q-26 30 -118 30q-230 0 -740 -164q-24 -6 -38 -6q-40 0 -62 48q-18 40 -18 86q0 56 50 78t128 40l132 28q454 112 702 112q106 0 152 -20q76 -30 76 -116q0 -80 -36 -174q-42 -108 -100 -140 q-264 -146 -580 -252q-364 -122 -612 -122q-220 0 -354 104q-146 114 -146 330z" />
<glyph unicode="h" horiz-adv-x="1420" d="M16 640q0 66 38 86q14 10 96 24v36q0 84 -28 241t-28 211q0 42 78 42q96 0 118 -50q46 -98 46 -352q0 -47 -2 -100q256 14 766 70q24 220 24 372q0 40 -5 117t-5 115q0 54 60 54q102 0 134 -82q16 -44 16 -168q0 -122 -30 -364q14 4 100 36q78 28 86 28q52 0 52 -100 q0 -116 -58 -148q-78 -40 -216 -68q-46 -300 -46 -584q0 -74 -108 -74q-92 0 -92 62q0 210 56 564q-110 -14 -374 -30q-238 -14 -372 -34v-60v-21q0 -77 12 -187q11 -102 12 -102v2q0 -76 -116 -76q-62 0 -74 40q-18 58 -18 198q0 44 4 166q-34 -12 -42 -12q-40 0 -64 56 q-20 46 -20 92z" />
<glyph unicode="i" horiz-adv-x="596" d="M152 162q0 146 48 422t48 414q0 86 -10 160q-2 10 -12 54q-8 34 -8 54q0 50 64 50q42 0 82 -18q50 -20 60 -54q28 -78 28 -218q0 -132 -47 -388t-47 -392q0 -26 4 -80t4 -80q0 -36 -42 -56q-32 -14 -72 -14q-72 0 -90 42q-10 20 -10 104z" />
<glyph unicode="j" horiz-adv-x="1606" d="M-106 354q0 52 35 96t83 44q26 0 102 -34q54 -24 106 -48q430 -178 778 -178q378 0 378 246q0 138 -134 312q-104 138 -248 248q-70 -6 -368 -28q-142 -10 -254 -41t-106 -31q-38 0 -62 54q-18 44 -18 90q0 74 44 94q170 74 648 82q290 4 506 90q32 14 64 30q50 22 62 22 q48 0 48 -100q0 -112 -78 -160q-40 -26 -180 -60q122 -120 206 -270q100 -176 100 -320q0 -142 -82 -280q-126 -208 -484 -208h-14l-30 2q-322 2 -896 214q-62 16 -170 66q-36 22 -36 68z" />
<glyph unicode="k" horiz-adv-x="1672" d="M56 514q0 130 62 176q14 124 14 214q0 40 -26 250v12q0 32 70 32q108 0 142 -72q18 -44 18 -170q0 -64 -8 -152q210 120 556 298q460 236 524 236q74 0 74 -94q0 -66 -76 -102q-254 -112 -508 -226q-388 -182 -434 -258l4 -6h10q10 -1 21 -1q54 0 131 17q78 20 154 38 q510 112 730 112q72 0 98 -24t26 -98q0 -46 -24 -68q-62 -172 -62 -340q0 -38 12 -111t12 -109q0 -46 -55 -79t-105 -33q-62 0 -80 94q-6 36 -6 142q0 160 32 326q8 36 8 46q0 26 -28 26q-64 0 -376 -50q-230 -40 -690 -118q-6 -60 -6 -120q0 -24 3 -70t3 -68 q0 -64 -116 -64q-64 0 -80 28q-14 20 -14 86q0 42 14 188q-24 40 -24 112z" />
<glyph unicode="l" horiz-adv-x="1396" d="M52 1238q0 40 86 40q84 0 110 -48q50 -100 50 -318q0 -70 -12 -208t-12 -208q0 -124 16 -240q284 74 638 118q270 36 472 128q36 18 72 38q56 30 70 30q58 0 58 -120q0 -96 -46 -128q-206 -148 -648 -188q-288 -26 -516 -100q-48 -20 -96 -38q-70 -26 -88 -26 q-114 0 -114 478q0 70 9 208t9 208q0 122 -20 224q-2 12 -22 76q-16 54 -16 74z" />
<glyph unicode="m" horiz-adv-x="1704" d="M112 258q0 116 37 343t37 343q0 54 -4 88q-2 20 -24 68q-20 42 -20 74q0 54 40 87t94 33q58 0 96 -102q152 -428 434 -428q232 0 482 324q38 48 51 118t123 70q146 0 146 -68q0 -14 -2 -40t-2 -40q0 -46 8 -140t8 -140q0 -62 -10 -184t-10 -184q0 -52 14 -153t14 -151 v-12q0 -28 -46 -48q-36 -16 -70 -16q-64 0 -76 40q-20 68 -20 216q0 70 9 208t9 208q0 96 -8 188q-178 -192 -320 -310q-148 -128 -336 -128q-242 0 -402 246q-14 -108 -30 -218q-16 -130 -16 -220q0 -26 3 -81t3 -81q0 -68 -114 -68q-74 0 -90 48q-8 20 -8 110z" />
<glyph unicode="n" horiz-adv-x="1564" d="M94 242q0 120 37 359t37 359q0 84 -8 136q-2 20 -23 67t-21 65q0 32 66 54q54 18 96 18q40 0 60 -42q100 -206 372 -512q264 -296 462 -432q72 -50 104 -50q44 0 74 86q22 66 22 122q0 96 -36 214q-54 178 -160 338q-104 152 -210 302q-20 30 -20 58q0 38 32 87t68 49 q34 0 76 -50q170 -206 300 -496q146 -320 146 -552q0 -162 -70 -260q-82 -110 -238 -110q-194 0 -500 314q-136 140 -404 478q-4 -28 -36 -246q-22 -152 -22 -248q0 -32 4 -92t4 -90q0 -68 -114 -68q-70 0 -88 40q-10 22 -10 102z" />
<glyph unicode="o" horiz-adv-x="1490" d="M-84 302q0 300 644 850q-60 42 -60 114q0 88 122 88q66 0 218 -54q278 -102 426 -198q250 -164 250 -364q0 -222 -322 -410q-442 -256 -892 -256q-386 0 -386 230zM154 384q0 -104 208 -104q200 0 468 94q284 100 412 230q68 70 68 126q0 132 -214 238q-144 70 -332 112 q-44 -46 -134 -136q-218 -200 -280 -264q-196 -204 -196 -296z" />
<glyph unicode="p" horiz-adv-x="1322" d="M78 954q0 66 82 94q-2 20 -12 72q-10 46 -10 72q0 42 60 42q118 0 132 -126q634 210 1016 228h16h7q65 0 107 -66q36 -58 36 -134q0 -56 -38 -90q-384 -344 -1188 -722q-4 -56 -4 -120q0 -28 2 -83t2 -83q0 -68 -102 -68q-62 0 -78 40q-6 18 -6 94q0 62 16 232 q-4 12 -4 24q0 6 12 54q24 98 38 446h-14q-34 0 -54 32q-16 26 -16 62zM308 554q404 196 918 550q-442 -54 -886 -186q-4 -134 -32 -364z" />
<glyph unicode="q" horiz-adv-x="1486" d="M-128 308q0 294 648 844q-62 46 -62 116q0 86 124 86q64 0 218 -54q278 -102 426 -200q248 -164 248 -366q0 -192 -260 -368q-188 -126 -440 -206q-4 -36 -4 -66q0 -64 24 -108q30 -56 90 -56q82 0 237 85t187 85q36 0 69 -35t33 -71q0 -34 -44 -66q-90 -68 -230 -122 q-150 -58 -254 -58q-144 0 -224 112q-68 98 -70 250q-176 -40 -332 -40q-384 0 -384 238zM114 382q0 -102 210 -102q124 0 284 40q38 238 118 400q40 80 128 80q74 0 74 -58q0 -32 -44 -170q-58 -180 -60 -184q152 56 270 132q178 112 178 210q0 132 -216 238 q-144 70 -334 112q-42 -46 -132 -136q-214 -196 -280 -264q-196 -204 -196 -298z" />
<glyph unicode="r" horiz-adv-x="1592" d="M46 544q0 86 64 96q14 148 16 238q-8 -2 -16 -2q-30 0 -50 38q-14 30 -14 66q0 46 18 64q8 10 54 30q-12 100 -12 92q0 32 58 32q32 0 74 -16q50 -18 48 -48q596 202 866 202q60 0 100 -60q38 -52 38 -114q0 -58 -34 -90q-154 -146 -570 -362q478 80 648 80q86 0 122 -20 q50 -28 50 -108q0 -32 -14 -48q-26 -106 -26 -206q0 -134 54 -290q6 -18 6 -30q0 -40 -51 -68t-95 -28q-62 0 -84 80q-42 140 -42 480q0 32 -9 41t-39 9q-172 0 -474 -58q-354 -66 -474 -78q-10 -80 -10 -168q0 -22 2 -67t2 -67q0 -64 -98 -64q-60 0 -76 38q-8 20 -8 90 q0 66 16 206q-40 36 -40 110zM288 714q428 208 688 396q-276 -36 -670 -168q-2 -104 -18 -228z" />
<glyph unicode="s" horiz-adv-x="1468" d="M-66 874q0 118 254 242q180 86 365 131t335 45q94 0 166 -18q48 92 64 114q48 62 106 62q52 0 94 -38t42 -90q0 -34 -36 -72q-60 -58 -60 -60q-20 -26 -36 -106q-16 -90 -30 -120q-24 -58 -78 -58q-58 0 -108 30q-60 34 -60 88q0 22 10 48q-24 10 -76 10q-124 0 -334 -48 q-264 -60 -264 -138q0 -58 222 -82l460 -40q286 -30 392 -94q156 -92 196 -174q16 -30 16 -58q0 -150 -308 -288q-208 -96 -434 -146q-202 -42 -370 -42q-370 0 -370 204q0 110 144 308q48 64 116 64q42 0 84 -12q56 -16 56 -48q0 -24 -86 -100t-86 -124q0 -90 202 -90 q180 0 418 62q112 30 208 72q156 66 156 122q0 50 -117 92t-401 68q-368 36 -462 52q-244 42 -338 130q-52 48 -52 102z" />
<glyph unicode="t" horiz-adv-x="1272" d="M-100 1152q0 72 46 88q202 70 746 70q286 0 532 86q36 14 74 30q54 22 66 22q52 0 52 -100q0 -116 -60 -150q-154 -82 -580 -112v-60v-12q0 -139 -42 -386q-48 -264 -48 -394q0 -26 4 -75t4 -73q0 -70 -114 -70q-70 0 -90 42q-8 22 -8 106q0 140 46 422q44 270 44 421v13 l-2 54q-158 -12 -286 -26q-32 -4 -156 -32q-112 -24 -134 -24q-42 0 -72 60q-22 50 -22 100z" />
<glyph unicode="u" horiz-adv-x="1456" d="M34 258q0 52 14 128q6 30 142 674q10 64 42 186q24 66 88 66q44 0 76 -29t32 -71q0 -58 -28 -196l-44 -204q-38 -194 -78 -370q-16 -62 -16 -96q0 -78 90 -78q22 0 64 4q204 22 410 42q298 42 362 118q26 30 26 124q0 170 -88 564q-42 192 -42 226q0 76 120 76 q80 0 110 -116q12 -90 26 -182q90 -434 90 -642q0 -100 -28 -152q-48 -94 -198 -138q-196 -56 -464 -98q-280 -44 -470 -44q-236 0 -236 208z" />
<glyph unicode="v" horiz-adv-x="1326" d="M-56 1250q0 42 50 77t92 35q30 0 50 -20q92 -88 286 -448q158 -298 246 -500q122 220 292 482q130 202 192 382l28 96q22 56 66 56q46 0 96 -34q52 -40 52 -84q0 -82 -100 -274q-78 -144 -158 -260q-120 -174 -174 -256q-92 -148 -144 -272q-10 -24 -18 -79t-20 -79 q-18 -34 -80 -34q-70 0 -130 30q-38 20 -46 46q-4 12 -4 66q0 22 -6 38q-112 326 -392 760l-100 140q-78 112 -78 132z" />
<glyph unicode="w" horiz-adv-x="1768" d="M-108 1246q0 40 47 75t89 35q30 0 46 -24q88 -112 210 -428q94 -242 160 -466l188 372q110 222 160 384q10 42 32 122q26 74 158 74q58 0 102 -128q-2 6 -2 -44q0 -18 38 -116q26 -64 52 -126q86 -240 148 -512q82 176 222 452q76 150 114 290q12 64 44 184q10 32 40 32 q48 0 94 -46t46 -94q0 -192 -206 -544q-260 -448 -260 -562q0 -8 3 -21t3 -21q0 -10 -14 -48t-22 -46q-18 -18 -64 -18q-138 0 -138 104q0 156 -86 450q-68 240 -152 444q-84 -220 -222 -462q-98 -168 -152 -322q-12 -56 -50 -160q-20 -38 -64 -38q-36 0 -74 18 q-30 0 -38 24q-24 16 -24 44q0 16 8 32q-100 416 -276 782q-2 2 -88 162q-72 132 -72 146z" />
<glyph unicode="x" horiz-adv-x="1266" d="M-12 1256q0 44 43 85t89 41q82 0 540 -532q144 154 262 294q60 74 154 212q22 34 66 96q22 26 50 26q48 0 95 -47t47 -93q0 -104 -534 -658q164 -212 258 -338q40 -50 114 -154q10 -20 10 -38q0 -44 -39 -82t-83 -38q-28 0 -54 26q-36 52 -110 154q-120 164 -242 318 q-172 -178 -270 -300q-34 -46 -104 -134q-28 -28 -72 -28q-46 0 -94 30q-56 32 -56 78t202 260q126 132 254 262q-170 194 -338 358q-62 50 -172 158q-16 20 -16 44z" />
<glyph unicode="y" horiz-adv-x="1568" d="M-42 266q0 78 44 127t120 49q120 0 298 -46q164 -42 286 -96q248 -114 390 -114q254 0 254 354q0 122 -28 294q-144 -84 -478 -152q-306 -62 -504 -62q-142 0 -202 34q-84 46 -84 174q0 228 60 418q28 88 144 88q82 0 82 -56q0 -38 -29 -158t-29 -180t40 -74q20 -8 98 -8 q154 0 414 46q316 56 368 126q28 38 28 128q0 38 -10 114t-10 114q0 34 39 60t75 26q74 0 100 -102q40 -164 74 -404q32 -250 32 -410q0 -240 -82 -396q-106 -202 -324 -202q-162 0 -432 118q-310 136 -672 136q-62 0 -62 54z" />
<glyph unicode="z" horiz-adv-x="1584" d="M-6 1194q0 46 24 84t58 44h74q44 0 116 8q88 10 114 12q118 8 262 8q40 0 123 -2t123 -2q238 0 436 56q4 2 74 28q56 20 70 20q50 0 50 -92q0 -88 -40 -142q-202 -276 -452 -492q-280 -244 -500 -466q200 4 400 6q236 8 398 48q-6 36 -48 114q-36 72 -36 106q0 46 51 93 t97 47q82 0 124 -160l40 -228q8 -44 8 -66q0 -58 -43 -94q-37 -31 -83 -31q-8 0 -16 1q-206 -66 -452 -66q-42 0 -125 4t-125 4q-172 0 -316 -30q-10 -2 -70 -18q-46 -14 -70 -14q-38 0 -92 50t-54 88q0 88 524 536q282 240 494 482q-130 -14 -450 -20q-288 -4 -450 -28 q6 -24 46 -98q32 -62 32 -100q0 -46 -53 -93t-99 -47q-82 0 -122 162q-6 22 -36 230q-6 40 -6 58z" />
<glyph unicode="&#xaa;" horiz-adv-x="1452" d="M-10 478q0 68 23 87q21 17 77 17h12q-56 220 -56 344q0 76 22 118q48 94 202 144q166 56 448 98q272 40 456 40q284 0 284 -164q0 -54 -48 -206l-72 -212q22 -2 65 -10t77 -72q28 -58 28 -108q0 -56 -48 -56q-30 0 -91 7t-91 7h-12q-44 -174 -44 -308q0 -106 32 -228 q8 -30 8 -46q0 -62 -64 -62q-36 0 -82 20t-58 48q-46 110 -46 284q0 130 30 276q-124 -16 -318 -54q-260 -52 -316 -62q2 -4 62 -158q50 -126 50 -144q0 -40 -44 -64q-36 -20 -80 -20q-86 0 -116 66q-52 108 -108 290q-74 -8 -106 -8q-38 0 -60 52q-16 38 -16 84zM290 864 q0 -92 48 -262q114 14 386 72q244 54 386 68q30 84 60 166q46 126 46 160l-2 8q-24 24 -140 24q-178 0 -400 -32q-300 -44 -364 -120q-20 -26 -20 -84z" />
<glyph unicode="&#xad;" d="M94 696q0 52 74 64q100 16 486 22q442 10 468 10q84 0 122 -20q54 -28 54 -106q0 -92 -130 -92q-178 0 -454 -16q-390 -24 -454 -26h-14q-62 -4 -107 48t-45 116z" />
<glyph unicode="&#xb2;" horiz-adv-x="1484" d="M-44 136q0 56 26 76q42 148 260 260q214 88 426 176q258 106 350 224q46 60 46 104q0 90 -148 90q-110 0 -289 -57t-283 -119q-80 -50 -110 -50q-64 0 -104 74q-34 62 -34 130q0 48 14 118q10 60 22 120q6 52 12 68q12 38 43 60t75 22q46 0 87 -31t41 -75q0 -22 -27 -82 t-27 -104q0 -10 2 -22q332 176 574 176q158 0 264 -54q140 -68 140 -212q0 -266 -394 -502q-88 -54 -284 -127t-286 -127q202 16 528 34q222 12 522 120q8 2 16 2q50 0 50 -98q0 -118 -58 -150q-220 -118 -714 -118q-254 0 -472 -46q-8 -2 -92 -24q-68 -18 -84 -18 q-44 0 -70 62q-22 50 -22 100z" />
<glyph unicode="&#xb3;" horiz-adv-x="1540" d="M-94 196q0 52 31 96t81 44q22 0 50 -12q210 -84 278 -106q156 -50 290 -50q174 0 414 76q294 94 294 222q0 122 -174 178q-118 38 -276 38q-208 0 -472 -92q-174 -60 -190 -60q-44 0 -69 30t-25 74q0 76 68 108q68 24 204 74q254 104 558 280q-398 -66 -776 -68 q-12 -4 -22 -4q-36 0 -56 48q-16 36 -16 78q0 74 52 88q12 4 114 4q202 0 726 78q150 22 154 22q64 0 104 -90q34 -70 34 -146q0 -54 -32 -84t-180 -116q200 -16 324 -104q146 -104 146 -292q0 -258 -306 -416q-252 -130 -538 -130q-256 0 -604 110q-46 14 -90 26 q-62 20 -79 40t-17 56z" />
<glyph unicode="&#xb9;" horiz-adv-x="758" d="M56 1144q0 76 148 132q106 34 214 66q54 16 84 16q146 0 146 -320q0 -132 -44 -387t-44 -387q0 -30 3 -90t3 -88q0 -68 -126 -68q-68 0 -82 48q-4 16 -4 104q0 140 44 416t44 416q0 58 -4 114q-36 -8 -124 -64q-78 -52 -118 -52q-44 0 -92 49t-48 95z" />
<glyph unicode="&#xba;" horiz-adv-x="1490" d="M-84 302q0 300 644 850q-60 42 -60 114q0 88 122 88q66 0 218 -54q278 -102 426 -198q250 -164 250 -364q0 -222 -322 -410q-442 -256 -892 -256q-386 0 -386 230zM154 384q0 -104 208 -104q200 0 468 94q284 100 412 230q68 70 68 126q0 132 -214 238q-144 70 -332 112 q-44 -46 -134 -136q-218 -200 -280 -264q-196 -204 -196 -296z" />
<glyph unicode="&#x152;" horiz-adv-x="3052" d="M1440 458q0 202 208 424q186 198 458 336t468 138q144 0 224 -108q20 -28 66 -145t52 -151v-10q4 -182 -340 -318q-168 -68 -506 -144q-232 -54 -398 -96q54 -128 314 -128q254 0 604 134q186 70 374 178q42 28 130 76q30 14 50 14q78 0 78 -122q0 -106 -56 -144 q-18 -10 -178 -82q-648 -284 -1028 -284q-348 0 -462 214q-58 106 -58 218zM1730 634q270 60 482 112q436 106 436 234q0 56 -58 92q-50 32 -108 32q-154 0 -412 -170q-242 -158 -340 -300zM-84 302q0 300 644 850q-60 42 -60 114q0 88 122 88q66 0 218 -54 q278 -102 426 -198q250 -164 250 -364q0 -222 -322 -410q-442 -256 -892 -256q-386 0 -386 230zM154 384q0 -104 208 -104q200 0 468 94q284 100 412 230q68 70 68 126q0 132 -214 238q-144 70 -332 112q-44 -46 -134 -136q-218 -200 -280 -264q-196 -204 -196 -296z" />
<glyph unicode="&#x153;" horiz-adv-x="3052" d="M1440 458q0 202 208 424q186 198 458 336t468 138q144 0 224 -108q20 -28 66 -145t52 -151v-10q4 -182 -340 -318q-168 -68 -506 -144q-232 -54 -398 -96q54 -128 314 -128q254 0 604 134q186 70 374 178q42 28 130 76q30 14 50 14q78 0 78 -122q0 -106 -56 -144 q-18 -10 -178 -82q-648 -284 -1028 -284q-348 0 -462 214q-58 106 -58 218zM1730 634q270 60 482 112q436 106 436 234q0 56 -58 92q-50 32 -108 32q-154 0 -412 -170q-242 -158 -340 -300zM-84 302q0 300 644 850q-60 42 -60 114q0 88 122 88q66 0 218 -54 q278 -102 426 -198q250 -164 250 -364q0 -222 -322 -410q-442 -256 -892 -256q-386 0 -386 230zM154 384q0 -104 208 -104q200 0 468 94q284 100 412 230q68 70 68 126q0 132 -214 238q-144 70 -332 112q-44 -46 -134 -136q-218 -200 -280 -264q-196 -204 -196 -296z" />
<glyph unicode="&#x2000;" horiz-adv-x="904" />
<glyph unicode="&#x2001;" horiz-adv-x="1808" />
<glyph unicode="&#x2002;" horiz-adv-x="904" />
<glyph unicode="&#x2003;" horiz-adv-x="1808" />
<glyph unicode="&#x2004;" horiz-adv-x="602" />
<glyph unicode="&#x2005;" horiz-adv-x="452" />
<glyph unicode="&#x2006;" horiz-adv-x="300" />
<glyph unicode="&#x2007;" horiz-adv-x="300" />
<glyph unicode="&#x2008;" horiz-adv-x="226" />
<glyph unicode="&#x2009;" horiz-adv-x="360" />
<glyph unicode="&#x200a;" horiz-adv-x="100" />
<glyph unicode="&#x2010;" d="M94 696q0 52 74 64q100 16 486 22q442 10 468 10q84 0 122 -20q54 -28 54 -106q0 -92 -130 -92q-178 0 -454 -16q-390 -24 -454 -26h-14q-62 -4 -107 48t-45 116z" />
<glyph unicode="&#x2011;" d="M94 696q0 52 74 64q100 16 486 22q442 10 468 10q84 0 122 -20q54 -28 54 -106q0 -92 -130 -92q-178 0 -454 -16q-390 -24 -454 -26h-14q-62 -4 -107 48t-45 116z" />
<glyph unicode="&#x2012;" d="M94 696q0 52 74 64q100 16 486 22q442 10 468 10q84 0 122 -20q54 -28 54 -106q0 -92 -130 -92q-178 0 -454 -16q-390 -24 -454 -26h-14q-62 -4 -107 48t-45 116z" />
<glyph unicode="&#x2013;" horiz-adv-x="1024" d="M204 512v204h616v-204h-616z" />
<glyph unicode="&#x2014;" horiz-adv-x="2048" d="M204 512v204h1640v-204h-1640z" />
<glyph unicode="&#x2018;" horiz-adv-x="680" d="M62 1534q0 44 38 72q32 28 78 28q68 0 96 -60q48 -100 144 -340q108 -276 108 -324q0 -40 -44 -62q-34 -16 -78 -16q-92 0 -114 64q-30 98 -98 294q-42 100 -120 302q-10 24 -10 42z" />
<glyph unicode="&#x2019;" horiz-adv-x="554" d="M150 910q0 54 108 326q88 224 144 338q28 60 94 60q46 0 81 -28t35 -72q0 -26 -56 -164q-38 -90 -74 -180q-30 -98 -96 -294q-22 -66 -116 -66q-44 0 -78 18q-42 22 -42 62z" />
<glyph unicode="&#x201c;" horiz-adv-x="1078" d="M46 1534q0 44 38 72q32 28 78 28q68 0 96 -60q48 -100 144 -340q108 -276 108 -324q0 -40 -44 -62q-34 -16 -78 -16q-92 0 -114 64q-30 98 -98 294q-42 100 -120 302q-10 24 -10 42zM448 1696q0 44 38 72q32 28 78 28q68 0 98 -62q36 -76 140 -340q110 -288 110 -324 q0 -40 -44 -62q-34 -16 -78 -16q-92 0 -114 64q-30 90 -92 272q-44 108 -126 326q-10 24 -10 42z" />
<glyph unicode="&#x201d;" horiz-adv-x="944" d="M168 1070q0 56 108 326q88 218 144 338q28 60 96 60q44 0 79 -28t35 -70q0 -24 -56 -166q-38 -88 -74 -178q-30 -100 -96 -296q-22 -66 -116 -66q-44 0 -78 18q-42 22 -42 62zM570 910q0 54 108 326q88 224 144 338q28 60 94 60q46 0 81 -28t35 -72q0 -26 -56 -164 q-38 -90 -74 -180q-30 -98 -96 -294q-22 -66 -116 -66q-44 0 -78 18q-42 22 -42 62z" />
<glyph unicode="&#x2026;" horiz-adv-x="1932" d="M1482 176q0 64 74 116q68 48 134 48q44 0 76 -26t32 -70q0 -64 -71 -114t-139 -50q-44 0 -75 26t-31 70zM838 176q0 64 74 116q68 48 134 48q44 0 76 -26t32 -70q0 -64 -71 -114t-139 -50q-44 0 -75 26t-31 70zM194 176q0 64 74 116q68 48 134 48q44 0 76 -26t32 -70 q0 -64 -71 -114t-139 -50q-44 0 -75 26t-31 70z" />
<glyph unicode="&#x202f;" horiz-adv-x="360" />
<glyph unicode="&#x205f;" horiz-adv-x="452" />
<glyph unicode="&#x2122;" horiz-adv-x="2974" d="M1384 258q0 116 37 343t37 343q0 54 -4 88q-2 20 -24 68q-20 42 -20 74q0 54 40 87t94 33q58 0 96 -102q152 -428 434 -428q232 0 482 324q38 48 51 118t123 70q146 0 146 -68q0 -14 -2 -40t-2 -40q0 -46 8 -140t8 -140q0 -62 -10 -184t-10 -184q0 -52 14 -153t14 -151 v-12q0 -28 -46 -48q-36 -16 -70 -16q-64 0 -76 40q-20 68 -20 216q0 70 9 208t9 208q0 96 -8 188q-178 -192 -320 -310q-148 -128 -336 -128q-242 0 -402 246q-14 -108 -30 -218q-16 -130 -16 -220q0 -26 3 -81t3 -81q0 -68 -114 -68q-74 0 -90 48q-8 20 -8 110zM-100 1152 q0 72 46 88q202 70 746 70q286 0 532 86q36 14 74 30q54 22 66 22q52 0 52 -100q0 -116 -60 -150q-154 -82 -580 -112v-60v-12q0 -139 -42 -386q-48 -264 -48 -394q0 -26 4 -75t4 -73q0 -70 -114 -70q-70 0 -90 42q-8 22 -8 106q0 140 46 422q44 270 44 421v13l-2 54 q-158 -12 -286 -26q-32 -4 -156 -32q-112 -24 -134 -24q-42 0 -72 60q-22 50 -22 100z" />
<glyph unicode="&#xe000;" horiz-adv-x="1480" d="M0 1480h1480v-1480h-1480v1480z" />
<glyph unicode="&#xfb01;" horiz-adv-x="2114" d="M1670 162q0 146 48 422t48 414q0 86 -10 160q-2 10 -12 54q-8 34 -8 54q0 50 64 50q42 0 82 -18q50 -20 60 -54q28 -78 28 -218q0 -132 -47 -388t-47 -392q0 -26 4 -80t4 -80q0 -36 -42 -56q-32 -14 -72 -14q-72 0 -90 42q-10 20 -10 104zM-16 566q0 68 44 86 q36 14 164 32q4 62 4 116q0 280 -80 474q-36 16 -36 86q0 86 37 119t123 33q172 0 523 -120t515 -120q60 0 148 31t94 31q42 0 42 -100q0 -112 -56 -144q-80 -50 -216 -50q-178 0 -466 104q-326 118 -462 134q56 -168 56 -458q0 -53 -2 -110l526 42q208 18 488 124 q12 4 20 4q46 0 46 -114q0 -106 -58 -138q-176 -98 -504 -112q-290 -14 -534 -46q-26 -244 -30 -260q-20 -150 -56 -252q-12 -36 -53 -59t-81 -23q-64 0 -64 56q0 100 22 248q32 238 32 246q-86 -22 -90 -22q-44 0 -72 62q-24 50 -24 100z" />
<glyph unicode="&#xfb02;" horiz-adv-x="2914" d="M1570 1238q0 40 86 40q84 0 110 -48q50 -100 50 -318q0 -70 -12 -208t-12 -208q0 -124 16 -240q284 74 638 118q270 36 472 128q36 18 72 38q56 30 70 30q58 0 58 -120q0 -96 -46 -128q-206 -148 -648 -188q-288 -26 -516 -100q-48 -20 -96 -38q-70 -26 -88 -26 q-114 0 -114 478q0 70 9 208t9 208q0 122 -20 224q-2 12 -22 76q-16 54 -16 74zM-16 566q0 68 44 86q36 14 164 32q4 62 4 116q0 280 -80 474q-36 16 -36 86q0 86 37 119t123 33q172 0 523 -120t515 -120q60 0 148 31t94 31q42 0 42 -100q0 -112 -56 -144q-80 -50 -216 -50 q-178 0 -466 104q-326 118 -462 134q56 -168 56 -458q0 -53 -2 -110l526 42q208 18 488 124q12 4 20 4q46 0 46 -114q0 -106 -58 -138q-176 -98 -504 -112q-290 -14 -534 -46q-26 -244 -30 -260q-20 -150 -56 -252q-12 -36 -53 -59t-81 -23q-64 0 -64 56q0 100 22 248 q32 238 32 246q-86 -22 -90 -22q-44 0 -72 62q-24 50 -24 100z" />
<glyph unicode="&#xfb03;" horiz-adv-x="3632" d="M3188 162q0 146 48 422t48 414q0 86 -10 160q-2 10 -12 54q-8 34 -8 54q0 50 64 50q42 0 82 -18q50 -20 60 -54q28 -78 28 -218q0 -132 -47 -388t-47 -392q0 -26 4 -80t4 -80q0 -36 -42 -56q-32 -14 -72 -14q-72 0 -90 42q-10 20 -10 104zM1502 566q0 68 44 86 q36 14 164 32q4 62 4 116q0 280 -80 474q-36 16 -36 86q0 86 37 119t123 33q172 0 523 -120t515 -120q60 0 148 31t94 31q42 0 42 -100q0 -112 -56 -144q-80 -50 -216 -50q-178 0 -466 104q-326 118 -462 134q56 -168 56 -458q0 -53 -2 -110l526 42q208 18 488 124 q12 4 20 4q46 0 46 -114q0 -106 -58 -138q-176 -98 -504 -112q-290 -14 -534 -46q-26 -244 -30 -260q-20 -150 -56 -252q-12 -36 -53 -59t-81 -23q-64 0 -64 56q0 100 22 248q32 238 32 246q-86 -22 -90 -22q-44 0 -72 62q-24 50 -24 100zM-16 566q0 68 44 86q36 14 164 32 q4 62 4 116q0 280 -80 474q-36 16 -36 86q0 86 37 119t123 33q172 0 523 -120t515 -120q60 0 148 31t94 31q42 0 42 -100q0 -112 -56 -144q-80 -50 -216 -50q-178 0 -466 104q-326 118 -462 134q56 -168 56 -458q0 -53 -2 -110l526 42q208 18 488 124q12 4 20 4 q46 0 46 -114q0 -106 -58 -138q-176 -98 -504 -112q-290 -14 -534 -46q-26 -244 -30 -260q-20 -150 -56 -252q-12 -36 -53 -59t-81 -23q-64 0 -64 56q0 100 22 248q32 238 32 246q-86 -22 -90 -22q-44 0 -72 62q-24 50 -24 100z" />
<glyph unicode="&#xfb04;" horiz-adv-x="4432" d="M3088 1238q0 40 86 40q84 0 110 -48q50 -100 50 -318q0 -70 -12 -208t-12 -208q0 -124 16 -240q284 74 638 118q270 36 472 128q36 18 72 38q56 30 70 30q58 0 58 -120q0 -96 -46 -128q-206 -148 -648 -188q-288 -26 -516 -100q-48 -20 -96 -38q-70 -26 -88 -26 q-114 0 -114 478q0 70 9 208t9 208q0 122 -20 224q-2 12 -22 76q-16 54 -16 74zM1502 566q0 68 44 86q36 14 164 32q4 62 4 116q0 280 -80 474q-36 16 -36 86q0 86 37 119t123 33q172 0 523 -120t515 -120q60 0 148 31t94 31q42 0 42 -100q0 -112 -56 -144q-80 -50 -216 -50 q-178 0 -466 104q-326 118 -462 134q56 -168 56 -458q0 -53 -2 -110l526 42q208 18 488 124q12 4 20 4q46 0 46 -114q0 -106 -58 -138q-176 -98 -504 -112q-290 -14 -534 -46q-26 -244 -30 -260q-20 -150 -56 -252q-12 -36 -53 -59t-81 -23q-64 0 -64 56q0 100 22 248 q32 238 32 246q-86 -22 -90 -22q-44 0 -72 62q-24 50 -24 100zM-16 566q0 68 44 86q36 14 164 32q4 62 4 116q0 280 -80 474q-36 16 -36 86q0 86 37 119t123 33q172 0 523 -120t515 -120q60 0 148 31t94 31q42 0 42 -100q0 -112 -56 -144q-80 -50 -216 -50q-178 0 -466 104 q-326 118 -462 134q56 -168 56 -458q0 -53 -2 -110l526 42q208 18 488 124q12 4 20 4q46 0 46 -114q0 -106 -58 -138q-176 -98 -504 -112q-290 -14 -534 -46q-26 -244 -30 -260q-20 -150 -56 -252q-12 -36 -53 -59t-81 -23q-64 0 -64 56q0 100 22 248q32 238 32 246 q-86 -22 -90 -22q-44 0 -72 62q-24 50 -24 100z" />
</font>
</defs>
</svg>
